<svg width="369" height="340" viewBox="0 0 369 340" fill="none" xmlns="http://www.w3.org/2000/svg">
<path fill-rule="evenodd" clip-rule="evenodd" d="M4 1H121.152C122.009 1 122.826 1.3667 123.395 2.00756L215.763 105.982C216.954 107.323 219.049 107.326 220.243 105.988L313.105 2.00175C313.675 1.36439 314.489 1 315.343 1H365C366.657 1 368 2.34315 368 4V335.5C368 337.157 366.657 338.5 365 338.5H317C315.343 338.5 314 337.157 314 335.5V241.336C314 238.584 310.605 237.284 308.767 239.333L220.239 338.005C219.045 339.336 216.958 339.333 215.768 337.999L127.738 239.369C125.903 237.313 122.416 238.611 122.217 241.359C118.729 289.683 82.7921 337.286 4.03312 338.477C2.37646 338.502 1 337.157 1 335.5V288.141C1 286.43 2.42864 285.07 4.13935 285.097C21.802 285.384 67.5 281.779 67.5 233.5V60C67.5 58.3431 66.1569 57 64.5 57H4C2.34315 57 1 55.6569 1 54V4C1 2.34314 2.34315 1 4 1ZM122.5 151.336V91.8118C122.5 89.0631 125.889 87.7616 127.729 89.8037L215.777 187.533C216.966 188.853 219.036 188.856 220.229 187.538L308.776 89.7677C310.619 87.7332 314 89.0367 314 91.7816V151.331C314 152.083 313.718 152.807 313.209 153.361L220.215 254.589C219.024 255.885 216.979 255.882 215.791 254.583L123.285 153.359C122.78 152.807 122.5 152.085 122.5 151.336Z" fill="black"/>
<path d="M123.395 2.00756L123.769 1.67548L123.769 1.67548L123.395 2.00756ZM215.763 105.982L216.137 105.65L216.137 105.65L215.763 105.982ZM220.243 105.988L219.871 105.655L219.871 105.655L220.243 105.988ZM313.105 2.00175L312.732 1.6687L312.732 1.66871L313.105 2.00175ZM308.767 239.333L308.395 238.999L308.395 238.999L308.767 239.333ZM220.239 338.005L219.867 337.671L219.867 337.671L220.239 338.005ZM215.768 337.999L215.395 338.332L215.395 338.332L215.768 337.999ZM127.738 239.369L128.111 239.036L128.111 239.036L127.738 239.369ZM122.217 241.359L122.716 241.395L122.716 241.395L122.217 241.359ZM4.03312 338.477L4.02556 337.977L4.02556 337.977L4.03312 338.477ZM4.13935 285.097L4.13123 285.597L4.13123 285.597L4.13935 285.097ZM127.729 89.8037L128.1 89.4691L128.1 89.4691L127.729 89.8037ZM215.777 187.533L216.148 187.198L216.148 187.198L215.777 187.533ZM220.229 187.538L220.6 187.874L220.6 187.874L220.229 187.538ZM308.776 89.7677L309.147 90.1034L309.147 90.1034L308.776 89.7677ZM313.209 153.361L313.578 153.699L313.578 153.699L313.209 153.361ZM220.215 254.589L219.847 254.251L219.847 254.251L220.215 254.589ZM215.791 254.583L215.422 254.92L215.422 254.92L215.791 254.583ZM123.285 153.359L122.916 153.697L122.916 153.697L123.285 153.359ZM215.777 187.533L215.406 187.867L215.406 187.867L215.777 187.533ZM121.152 0.5H4V1.5H121.152V0.5ZM123.769 1.67548C123.105 0.927818 122.152 0.5 121.152 0.5V1.5C121.867 1.5 122.547 1.80558 123.021 2.33963L123.769 1.67548ZM216.137 105.65L123.769 1.67548L123.021 2.33963L215.389 106.314L216.137 105.65ZM219.871 105.655C218.875 106.77 217.13 106.767 216.137 105.65L215.389 106.314C216.779 107.879 219.222 107.882 220.616 106.321L219.871 105.655ZM312.732 1.66871L219.871 105.655L220.616 106.321L313.478 2.33479L312.732 1.66871ZM315.343 0.5C314.346 0.5 313.397 0.925127 312.732 1.6687L313.478 2.33479C313.953 1.80366 314.631 1.5 315.343 1.5V0.5ZM365 0.5H315.343V1.5H365V0.5ZM368.5 4C368.5 2.067 366.933 0.5 365 0.5V1.5C366.381 1.5 367.5 2.61929 367.5 4H368.5ZM368.5 335.5V4H367.5V335.5H368.5ZM365 339C366.933 339 368.5 337.433 368.5 335.5H367.5C367.5 336.881 366.381 338 365 338V339ZM317 339H365V338H317V339ZM313.5 335.5C313.5 337.433 315.067 339 317 339V338C315.619 338 314.5 336.881 314.5 335.5H313.5ZM313.5 241.336V335.5H314.5V241.336H313.5ZM309.139 239.667C310.671 237.96 313.5 239.043 313.5 241.336H314.5C314.5 238.126 310.539 236.609 308.395 238.999L309.139 239.667ZM220.611 338.339L309.139 239.667L308.395 238.999L219.867 337.671L220.611 338.339ZM215.395 338.332C216.784 339.888 219.218 339.891 220.611 338.339L219.867 337.671C218.871 338.78 217.133 338.778 216.141 337.666L215.395 338.332ZM127.365 239.702L215.395 338.332L216.141 337.666L128.111 239.036L127.365 239.702ZM122.716 241.395C122.885 239.05 125.849 238.003 127.365 239.702L128.111 239.036C125.958 236.623 121.946 238.171 121.718 241.323L122.716 241.395ZM4.04068 338.977C43.5233 338.38 72.3235 326.147 91.694 307.958C111.061 289.772 120.964 265.667 122.716 241.395L121.718 241.323C119.982 265.375 110.173 289.234 91.0094 307.229C71.8496 325.22 43.3019 337.383 4.02556 337.977L4.04068 338.977ZM0.5 335.5C0.5 337.438 2.10724 339.006 4.04068 338.977L4.02556 337.977C2.64567 337.998 1.5 336.875 1.5 335.5H0.5ZM0.5 288.141V335.5H1.5V288.141H0.5ZM4.14748 284.597C2.16713 284.565 0.5 286.141 0.5 288.141H1.5C1.5 286.719 2.69014 285.574 4.13123 285.597L4.14748 284.597ZM67 233.5C67 245.488 64.1644 254.669 59.6626 261.7C55.1598 268.734 48.9706 273.646 42.2174 277.065C28.6951 283.909 12.9542 284.741 4.14748 284.597L4.13123 285.597C12.9872 285.741 28.9266 284.913 42.669 277.957C49.5481 274.475 55.8873 269.452 60.5048 262.24C65.1234 255.026 68 245.652 68 233.5H67ZM67 60V233.5H68V60H67ZM64.5 57.5C65.8807 57.5 67 58.6193 67 60H68C68 58.067 66.433 56.5 64.5 56.5V57.5ZM4 57.5H64.5V56.5H4V57.5ZM0.5 54C0.5 55.933 2.067 57.5 4 57.5V56.5C2.61929 56.5 1.5 55.3807 1.5 54H0.5ZM0.5 4V54H1.5V4H0.5ZM4 0.5C2.067 0.5 0.5 2.067 0.5 4H1.5C1.5 2.61929 2.61929 1.5 4 1.5V0.5ZM122 91.8118V151.336H123V91.8118H122ZM128.1 89.4691C125.954 87.0866 122 88.605 122 91.8118H123C123 89.5212 125.824 88.4366 127.357 90.1384L128.1 89.4691ZM216.148 187.198L128.1 89.4691L127.357 90.1384L215.406 187.867L216.148 187.198ZM219.859 187.203C218.865 188.3 217.14 188.298 216.148 187.198L215.406 187.867C216.793 189.408 219.208 189.411 220.6 187.874L219.859 187.203ZM308.406 89.4321L219.859 187.203L220.6 187.874L309.147 90.1034L308.406 89.4321ZM314.5 91.7816C314.5 88.5792 310.555 87.0585 308.406 89.4321L309.147 90.1034C310.682 88.408 313.5 89.4942 313.5 91.7816H314.5ZM314.5 151.331V91.7816H313.5V151.331H314.5ZM313.578 153.699C314.171 153.053 314.5 152.208 314.5 151.331H313.5C313.5 151.958 313.265 152.561 312.841 153.023L313.578 153.699ZM220.583 254.927L313.578 153.699L312.841 153.023L219.847 254.251L220.583 254.927ZM215.422 254.92C216.807 256.436 219.194 256.439 220.583 254.927L219.847 254.251C218.855 255.331 217.15 255.329 216.16 254.246L215.422 254.92ZM122.916 153.697L215.422 254.92L216.16 254.246L123.655 153.022L122.916 153.697ZM122 151.336C122 152.21 122.327 153.052 122.916 153.697L123.655 153.022C123.233 152.561 123 151.96 123 151.336H122ZM123 151.336V91.8118H122V151.336H123ZM127.357 90.1384L215.406 187.867L216.148 187.198L128.1 89.4691L127.357 90.1384ZM312.841 153.023L219.847 254.251L220.583 254.927L313.578 153.699L312.841 153.023ZM216.16 254.246L123.655 153.022L122.916 153.697L215.422 254.92L216.16 254.246ZM215.406 187.867C216.793 189.408 219.208 189.411 220.6 187.874L219.859 187.203C218.865 188.3 217.14 188.298 216.148 187.198L215.406 187.867Z" fill="black"/>
</svg>
